# xmcd CD database file
#
# Track frame offsets:
#	150
#	36721
#	101026
#	122337
#	146178
#	233497
#
# Disc length: 3339 seconds
#
# Revision: 0
# Processed by: cddbd v1.5.2PL0 Copyright (c) Steve Scherf et al.
# Submitted via: CDex 1.51
#
DISCID=500d0906
DTITLE=John Butcher and Eddie Prevost - Interworks
DYEAR=2005
DGENRE=Jazz
TTITLE0=Out Work
TTITLE1=Work Shy
TTITLE2=Work Flow
TTITLE3=Work Up
TTITLE4=Shift Work
TTITLE5=Work In
EXTD=YEAR: 2005
EXTT0=
EXTT1=
EXTT2=
EXTT3=
EXTT4=
EXTT5=
PLAYORDER=
